<mxfile host="app.diagrams.net" modified="2023-12-08T11:52:20.283Z" agent="Mozilla/5.0 (Windows NT 10.0; Win64; x64) AppleWebKit/537.36 (KHTML, like Gecko) Chrome/120.0.0.0 Safari/537.36" etag="lezCbAfqzZXXoklxHcL5" version="22.1.7" type="device">
  <diagram name="Page-1" id="e7e014a7-5840-1c2e-5031-d8a46d1fe8dd">
    <mxGraphModel dx="1073" dy="559" grid="1" gridSize="10" guides="1" tooltips="1" connect="1" arrows="1" fold="1" page="1" pageScale="1" pageWidth="1169" pageHeight="826" background="none" math="0" shadow="0">
      <root>
        <mxCell id="0" />
        <mxCell id="1" parent="0" />
        <mxCell id="cDPz08m6wm6m38Eu_1ed-78" value="" style="group" vertex="1" connectable="0" parent="1">
          <mxGeometry x="180" y="790" width="1240" height="280" as="geometry" />
        </mxCell>
        <mxCell id="cDPz08m6wm6m38Eu_1ed-42" value="" style="ellipse;shape=startState;fillColor=#000000;strokeColor=#ff0000;" vertex="1" parent="cDPz08m6wm6m38Eu_1ed-78">
          <mxGeometry y="66" width="30" height="30" as="geometry" />
        </mxCell>
        <mxCell id="cDPz08m6wm6m38Eu_1ed-43" value="idle" style="" vertex="1" parent="cDPz08m6wm6m38Eu_1ed-78">
          <mxGeometry x="60" y="56" width="70" height="50" as="geometry" />
        </mxCell>
        <mxCell id="cDPz08m6wm6m38Eu_1ed-44" style="edgeStyle=orthogonalEdgeStyle;rounded=0;orthogonalLoop=1;jettySize=auto;html=1;entryX=0;entryY=0.5;entryDx=0;entryDy=0;" edge="1" parent="cDPz08m6wm6m38Eu_1ed-78" source="cDPz08m6wm6m38Eu_1ed-42" target="cDPz08m6wm6m38Eu_1ed-43">
          <mxGeometry relative="1" as="geometry" />
        </mxCell>
        <mxCell id="cDPz08m6wm6m38Eu_1ed-45" value="Start Game" style="" vertex="1" parent="cDPz08m6wm6m38Eu_1ed-78">
          <mxGeometry x="160" y="56" width="80" height="50" as="geometry" />
        </mxCell>
        <mxCell id="cDPz08m6wm6m38Eu_1ed-47" style="edgeStyle=orthogonalEdgeStyle;rounded=0;orthogonalLoop=1;jettySize=auto;html=1;entryX=0;entryY=0.5;entryDx=0;entryDy=0;" edge="1" parent="cDPz08m6wm6m38Eu_1ed-78" source="cDPz08m6wm6m38Eu_1ed-43" target="cDPz08m6wm6m38Eu_1ed-45">
          <mxGeometry relative="1" as="geometry" />
        </mxCell>
        <mxCell id="cDPz08m6wm6m38Eu_1ed-46" value="game end" style="" vertex="1" parent="cDPz08m6wm6m38Eu_1ed-78">
          <mxGeometry x="715" y="180" width="110" height="50" as="geometry" />
        </mxCell>
        <mxCell id="cDPz08m6wm6m38Eu_1ed-57" style="edgeStyle=orthogonalEdgeStyle;rounded=0;orthogonalLoop=1;jettySize=auto;html=1;entryX=0;entryY=0.5;entryDx=0;entryDy=0;" edge="1" parent="cDPz08m6wm6m38Eu_1ed-78" source="cDPz08m6wm6m38Eu_1ed-48" target="cDPz08m6wm6m38Eu_1ed-46">
          <mxGeometry relative="1" as="geometry">
            <Array as="points">
              <mxPoint x="435" y="205" />
            </Array>
          </mxGeometry>
        </mxCell>
        <mxCell id="cDPz08m6wm6m38Eu_1ed-48" value="Collision with wall" style="rhombus;fillColor=#ffffc0;strokeColor=#ff0000;" vertex="1" parent="cDPz08m6wm6m38Eu_1ed-78">
          <mxGeometry x="374.5" y="51.5" width="120" height="59" as="geometry" />
        </mxCell>
        <mxCell id="cDPz08m6wm6m38Eu_1ed-58" style="edgeStyle=orthogonalEdgeStyle;rounded=0;orthogonalLoop=1;jettySize=auto;html=1;entryX=0;entryY=0.25;entryDx=0;entryDy=0;" edge="1" parent="cDPz08m6wm6m38Eu_1ed-78" source="cDPz08m6wm6m38Eu_1ed-50" target="cDPz08m6wm6m38Eu_1ed-46">
          <mxGeometry relative="1" as="geometry">
            <Array as="points">
              <mxPoint x="610" y="192" />
            </Array>
          </mxGeometry>
        </mxCell>
        <mxCell id="cDPz08m6wm6m38Eu_1ed-50" value="Collision with taill" style="rhombus;fillColor=#ffffc0;strokeColor=#ff0000;" vertex="1" parent="cDPz08m6wm6m38Eu_1ed-78">
          <mxGeometry x="550" y="51.5" width="120" height="59" as="geometry" />
        </mxCell>
        <mxCell id="cDPz08m6wm6m38Eu_1ed-54" style="edgeStyle=orthogonalEdgeStyle;rounded=0;orthogonalLoop=1;jettySize=auto;html=1;entryX=0;entryY=0.5;entryDx=0;entryDy=0;" edge="1" parent="cDPz08m6wm6m38Eu_1ed-78" source="cDPz08m6wm6m38Eu_1ed-48" target="cDPz08m6wm6m38Eu_1ed-50">
          <mxGeometry relative="1" as="geometry" />
        </mxCell>
        <mxCell id="cDPz08m6wm6m38Eu_1ed-53" style="edgeStyle=orthogonalEdgeStyle;rounded=0;orthogonalLoop=1;jettySize=auto;html=1;entryX=0;entryY=0.5;entryDx=0;entryDy=0;" edge="1" parent="cDPz08m6wm6m38Eu_1ed-78" source="cDPz08m6wm6m38Eu_1ed-51" target="cDPz08m6wm6m38Eu_1ed-48">
          <mxGeometry relative="1" as="geometry" />
        </mxCell>
        <mxCell id="cDPz08m6wm6m38Eu_1ed-51" value="move&#xa;1 tick" style="" vertex="1" parent="cDPz08m6wm6m38Eu_1ed-78">
          <mxGeometry x="270" y="56" width="60" height="50" as="geometry" />
        </mxCell>
        <mxCell id="cDPz08m6wm6m38Eu_1ed-52" style="edgeStyle=orthogonalEdgeStyle;rounded=0;orthogonalLoop=1;jettySize=auto;html=1;entryX=0;entryY=0.5;entryDx=0;entryDy=0;" edge="1" parent="cDPz08m6wm6m38Eu_1ed-78" source="cDPz08m6wm6m38Eu_1ed-45" target="cDPz08m6wm6m38Eu_1ed-51">
          <mxGeometry relative="1" as="geometry" />
        </mxCell>
        <mxCell id="cDPz08m6wm6m38Eu_1ed-59" style="edgeStyle=orthogonalEdgeStyle;rounded=0;orthogonalLoop=1;jettySize=auto;html=1;entryX=0.5;entryY=0;entryDx=0;entryDy=0;" edge="1" parent="cDPz08m6wm6m38Eu_1ed-78" source="cDPz08m6wm6m38Eu_1ed-55" target="cDPz08m6wm6m38Eu_1ed-46">
          <mxGeometry relative="1" as="geometry" />
        </mxCell>
        <mxCell id="cDPz08m6wm6m38Eu_1ed-60" style="edgeStyle=orthogonalEdgeStyle;rounded=0;orthogonalLoop=1;jettySize=auto;html=1;entryX=0.5;entryY=0;entryDx=0;entryDy=0;" edge="1" parent="cDPz08m6wm6m38Eu_1ed-78" source="cDPz08m6wm6m38Eu_1ed-55" target="cDPz08m6wm6m38Eu_1ed-51">
          <mxGeometry relative="1" as="geometry">
            <Array as="points">
              <mxPoint x="770" />
              <mxPoint x="300" />
            </Array>
          </mxGeometry>
        </mxCell>
        <mxCell id="cDPz08m6wm6m38Eu_1ed-55" value="Collision with item" style="rhombus;fillColor=#ffffc0;strokeColor=#ff0000;" vertex="1" parent="cDPz08m6wm6m38Eu_1ed-78">
          <mxGeometry x="710" y="51.5" width="120" height="59" as="geometry" />
        </mxCell>
        <mxCell id="cDPz08m6wm6m38Eu_1ed-56" style="edgeStyle=orthogonalEdgeStyle;rounded=0;orthogonalLoop=1;jettySize=auto;html=1;entryX=0;entryY=0.5;entryDx=0;entryDy=0;" edge="1" parent="cDPz08m6wm6m38Eu_1ed-78" source="cDPz08m6wm6m38Eu_1ed-50" target="cDPz08m6wm6m38Eu_1ed-55">
          <mxGeometry relative="1" as="geometry" />
        </mxCell>
        <mxCell id="cDPz08m6wm6m38Eu_1ed-61" value="YES" style="text;html=1;strokeColor=none;fillColor=none;align=center;verticalAlign=middle;whiteSpace=wrap;rounded=0;" vertex="1" parent="cDPz08m6wm6m38Eu_1ed-78">
          <mxGeometry x="430" y="110.5" width="60" height="30" as="geometry" />
        </mxCell>
        <mxCell id="cDPz08m6wm6m38Eu_1ed-62" value="YES" style="text;html=1;strokeColor=none;fillColor=none;align=center;verticalAlign=middle;whiteSpace=wrap;rounded=0;" vertex="1" parent="cDPz08m6wm6m38Eu_1ed-78">
          <mxGeometry x="600" y="106" width="60" height="30" as="geometry" />
        </mxCell>
        <mxCell id="cDPz08m6wm6m38Eu_1ed-63" value="YES" style="text;html=1;strokeColor=none;fillColor=none;align=center;verticalAlign=middle;whiteSpace=wrap;rounded=0;" vertex="1" parent="cDPz08m6wm6m38Eu_1ed-78">
          <mxGeometry x="760" y="21.5" width="60" height="30" as="geometry" />
        </mxCell>
        <mxCell id="cDPz08m6wm6m38Eu_1ed-64" value="NO" style="text;html=1;strokeColor=none;fillColor=none;align=center;verticalAlign=middle;whiteSpace=wrap;rounded=0;" vertex="1" parent="cDPz08m6wm6m38Eu_1ed-78">
          <mxGeometry x="970" y="175.5" width="60" height="30" as="geometry" />
        </mxCell>
        <mxCell id="cDPz08m6wm6m38Eu_1ed-65" value="NO" style="text;html=1;strokeColor=none;fillColor=none;align=center;verticalAlign=middle;whiteSpace=wrap;rounded=0;" vertex="1" parent="cDPz08m6wm6m38Eu_1ed-78">
          <mxGeometry x="650" y="56" width="60" height="30" as="geometry" />
        </mxCell>
        <mxCell id="cDPz08m6wm6m38Eu_1ed-66" value="NO" style="text;html=1;strokeColor=none;fillColor=none;align=center;verticalAlign=middle;whiteSpace=wrap;rounded=0;" vertex="1" parent="cDPz08m6wm6m38Eu_1ed-78">
          <mxGeometry x="480" y="56" width="60" height="30" as="geometry" />
        </mxCell>
        <mxCell id="cDPz08m6wm6m38Eu_1ed-72" style="edgeStyle=orthogonalEdgeStyle;rounded=0;orthogonalLoop=1;jettySize=auto;html=1;entryX=0.5;entryY=1;entryDx=0;entryDy=0;" edge="1" parent="cDPz08m6wm6m38Eu_1ed-78" source="cDPz08m6wm6m38Eu_1ed-68" target="cDPz08m6wm6m38Eu_1ed-45">
          <mxGeometry relative="1" as="geometry">
            <Array as="points">
              <mxPoint x="930" y="270" />
              <mxPoint x="200" y="270" />
            </Array>
          </mxGeometry>
        </mxCell>
        <mxCell id="cDPz08m6wm6m38Eu_1ed-68" value="enter spacebar" style="rhombus;fillColor=#ffffc0;strokeColor=#ff0000;" vertex="1" parent="cDPz08m6wm6m38Eu_1ed-78">
          <mxGeometry x="870" y="175.5" width="120" height="59" as="geometry" />
        </mxCell>
        <mxCell id="cDPz08m6wm6m38Eu_1ed-70" style="edgeStyle=orthogonalEdgeStyle;rounded=0;orthogonalLoop=1;jettySize=auto;html=1;entryX=0;entryY=0.5;entryDx=0;entryDy=0;" edge="1" parent="cDPz08m6wm6m38Eu_1ed-78" source="cDPz08m6wm6m38Eu_1ed-46" target="cDPz08m6wm6m38Eu_1ed-68">
          <mxGeometry relative="1" as="geometry" />
        </mxCell>
        <mxCell id="cDPz08m6wm6m38Eu_1ed-74" style="edgeStyle=orthogonalEdgeStyle;rounded=0;orthogonalLoop=1;jettySize=auto;html=1;entryX=0.25;entryY=1;entryDx=0;entryDy=0;" edge="1" parent="cDPz08m6wm6m38Eu_1ed-78">
          <mxGeometry relative="1" as="geometry">
            <mxPoint x="180.24" y="106" as="targetPoint" />
            <mxPoint x="1079.24" y="234.5" as="sourcePoint" />
            <Array as="points">
              <mxPoint x="1079" y="280" />
              <mxPoint x="180" y="280" />
              <mxPoint x="180" y="140" />
            </Array>
          </mxGeometry>
        </mxCell>
        <mxCell id="cDPz08m6wm6m38Eu_1ed-69" value="enter ESC" style="rhombus;fillColor=#ffffc0;strokeColor=#ff0000;" vertex="1" parent="cDPz08m6wm6m38Eu_1ed-78">
          <mxGeometry x="1040" y="175.5" width="120" height="59" as="geometry" />
        </mxCell>
        <mxCell id="cDPz08m6wm6m38Eu_1ed-71" style="edgeStyle=orthogonalEdgeStyle;rounded=0;orthogonalLoop=1;jettySize=auto;html=1;entryX=0;entryY=0.5;entryDx=0;entryDy=0;" edge="1" parent="cDPz08m6wm6m38Eu_1ed-78" source="cDPz08m6wm6m38Eu_1ed-68" target="cDPz08m6wm6m38Eu_1ed-69">
          <mxGeometry relative="1" as="geometry" />
        </mxCell>
        <mxCell id="cDPz08m6wm6m38Eu_1ed-73" value="YES" style="text;html=1;strokeColor=none;fillColor=none;align=center;verticalAlign=middle;whiteSpace=wrap;rounded=0;" vertex="1" parent="cDPz08m6wm6m38Eu_1ed-78">
          <mxGeometry x="920" y="250" width="60" height="30" as="geometry" />
        </mxCell>
        <mxCell id="cDPz08m6wm6m38Eu_1ed-75" value="YES" style="text;html=1;strokeColor=none;fillColor=none;align=center;verticalAlign=middle;whiteSpace=wrap;rounded=0;" vertex="1" parent="cDPz08m6wm6m38Eu_1ed-78">
          <mxGeometry x="1090" y="250" width="60" height="30" as="geometry" />
        </mxCell>
        <mxCell id="cDPz08m6wm6m38Eu_1ed-76" value="" style="ellipse;shape=endState;fillColor=#000000;strokeColor=#ff0000" vertex="1" parent="cDPz08m6wm6m38Eu_1ed-78">
          <mxGeometry x="1210" y="190" width="30" height="30" as="geometry" />
        </mxCell>
        <mxCell id="cDPz08m6wm6m38Eu_1ed-77" style="edgeStyle=orthogonalEdgeStyle;rounded=0;orthogonalLoop=1;jettySize=auto;html=1;entryX=0;entryY=0.5;entryDx=0;entryDy=0;" edge="1" parent="cDPz08m6wm6m38Eu_1ed-78" source="cDPz08m6wm6m38Eu_1ed-69" target="cDPz08m6wm6m38Eu_1ed-76">
          <mxGeometry relative="1" as="geometry" />
        </mxCell>
      </root>
    </mxGraphModel>
  </diagram>
</mxfile>
